# square.obj
#

o square
mtllib square.mtl

v -0.500000 -0.500000 0.500000
v 0.500000 -0.500000 0.500000
v -0.500000 0.000000 0.500000
v 0.500000 0.000000 0.500000
v -0.500000 0.000000 -0.500000
v 0.500000 0.000000 -0.500000
v -0.500000 -0.500000 -0.500000
v 0.500000 -0.500000 -0.500000

vt 0.000000 0.000000
vt 1.000000 0.000000
vt 0.000000 1.000000
vt 1.000000 1.000000

vn 0.000000 0.000000 1.000000
vn 0.000000 1.000000 0.000000
vn 0.000000 0.000000 -1.000000
vn 0.000000 -1.000000 0.000000
vn 1.000000 0.000000 0.000000
vn -1.000000 0.000000 0.000000

g square
usemtl square
s 1
f 3/1/2 4/2/2 5/3/2
f 5/3/2 4/2/2 6/4/2