# Blender v2.79 (sub 0) OBJ File: ''
# www.blender.org
mtllib Fire_up.mtl
o Cube
v -1.000105 -1.000000 0.110331
v -0.999894 -1.000000 -0.112232
v 1.000105 -1.000000 -0.110331
v 0.999893 -1.000000 0.112232
v -1.000106 1.000000 0.110331
v -0.999893 1.000000 -0.112232
v 1.000106 1.000000 -0.110331
v 0.999894 1.000000 0.112232
vt 0.997164 0.007144
vt 0.997201 0.991913
vt 0.951172 0.994053
vt 0.951174 0.004616
vt 0.000000 0.666667
vt 0.333333 0.666667
vt 0.333333 1.000000
vt 0.000000 1.000000
vt 0.666667 0.333333
vt 0.666667 0.666667
vt 0.333333 0.666667
vt 0.333333 0.333333
vt 0.666667 0.333333
vt 0.333333 0.333333
vt 0.333333 0.000000
vt 0.666667 0.000000
vt 1.000000 0.333333
vt 0.666667 0.333333
vt 0.666667 0.000000
vt 1.000000 0.000000
vt 0.002474 0.999132
vt 0.002502 0.023790
vt 0.048525 0.024570
vt 0.048633 0.999836
vn 0.0010 -0.0000 -1.0000
vn 0.0000 -1.0000 0.0000
vn 0.0000 1.0000 0.0000
vn -1.0000 0.0000 -0.0010
vn 1.0000 -0.0000 0.0010
vn -0.0010 0.0000 1.0000
usemtl Material
s off
f 2/1/1 6/2/1 7/3/1 3/4/1
usemtl Material_Black.jpg
f 1/5/2 2/6/2 3/7/2 4/8/2
f 5/9/3 8/10/3 7/11/3 6/12/3
f 1/13/4 5/14/4 6/15/4 2/16/4
f 3/17/5 7/18/5 8/19/5 4/20/5
usemtl Material_Power_Ups_BDS.png
f 5/21/6 1/22/6 4/23/6 8/24/6
