# Blender v2.79 (sub 0) OBJ File: ''
# www.blender.org
mtllib cube.mtl
o Cube.022
v 0.488083 -0.484809 -0.512289
v 0.488083 -0.484809 0.515306
v -0.539511 -0.484809 0.515306
v -0.539511 -0.484809 -0.512289
v 0.488083 0.542786 -0.512288
v -0.539511 0.542786 -0.512289
v -0.539512 0.542786 0.515306
v 0.488083 0.542786 0.515306
vt 0.666667 0.333333
vt 0.666667 0.000000
vt 1.000000 0.000000
vt 1.000000 0.333333
vt 0.607578 0.506782
vt 0.607578 0.720126
vt 0.376237 0.720126
vt 0.376237 0.506782
vt 0.379798 0.504829
vt 0.607271 0.506253
vt 0.605813 0.719698
vt 0.378340 0.718274
vt 0.377060 0.508367
vt 0.605974 0.508001
vt 0.606450 0.719652
vt 0.377537 0.720018
vt 0.376635 0.507362
vt 0.605496 0.506422
vt 0.606513 0.720950
vt 0.377652 0.721890
vt 0.606230 0.721761
vt 0.377974 0.720487
vt 0.379386 0.505377
vt 0.607642 0.506650
vn 0.0000 -1.0000 -0.0000
vn 0.0000 1.0000 0.0000
vn 1.0000 0.0000 0.0000
vn 0.0000 -0.0000 1.0000
vn -1.0000 -0.0000 -0.0000
vn 0.0000 0.0000 -1.0000
usemtl Material.022
s 1
f 1/1/1 2/2/1 3/3/1 4/4/1
usemtl Material_wood_box.jpg.015
f 5/5/2 6/6/2 7/7/2 8/8/2
f 1/9/3 5/10/3 8/11/3 2/12/3
f 2/13/4 8/14/4 7/15/4 3/16/4
f 3/17/5 7/18/5 6/19/5 4/20/5
f 5/21/6 1/22/6 4/23/6 6/24/6
