# Blender v2.79 (sub 0) OBJ File: ''
# www.blender.org
mtllib grass_pokemon.mtl
o Cube.023
v 0.479183 -0.484999 -0.503413
v 0.479183 -0.484999 0.506375
v -0.530605 -0.484999 0.506375
v -0.530605 -0.484999 -0.503413
v 0.479183 0.524789 -0.503413
v -0.530605 0.524789 -0.503413
v -0.530605 0.524789 0.506375
v 0.479182 0.524789 0.506375
vt 0.666667 0.333333
vt 0.666667 0.000000
vt 1.000000 0.000000
vt 1.000000 0.333333
vt 0.641776 0.753728
vt 0.641776 0.847681
vt 0.581520 0.847681
vt 0.581520 0.753728
vt 0.754124 0.565928
vt 0.757452 0.708927
vt 0.694866 0.711327
vt 0.691538 0.568328
vt 0.705916 0.564684
vt 0.705436 0.729213
vt 0.628482 0.728890
vt 0.628961 0.564361
vt 0.754782 0.559538
vt 0.756161 0.750972
vt 0.694262 0.752384
vt 0.692883 0.560950
vt 0.628444 0.751413
vt 0.630046 0.560480
vt 0.708244 0.562558
vt 0.706643 0.753491
vn 0.0000 -1.0000 -0.0000
vn 0.0000 1.0000 0.0000
vn 1.0000 0.0000 0.0000
vn 0.0000 -0.0000 1.0000
vn -1.0000 0.0000 0.0000
vn 0.0000 0.0000 -1.0000
usemtl Material.023
s 1
f 1/1/1 2/2/1 3/3/1 4/4/1
usemtl Material_wood_box.jpg.016
f 5/5/2 6/6/2 7/7/2 8/8/2
f 1/9/3 5/10/3 8/11/3 2/12/3
f 2/13/4 8/14/4 7/15/4 3/16/4
f 3/17/5 7/18/5 6/19/5 4/20/5
f 5/21/6 1/22/6 4/23/6 6/24/6
