# Blender v2.79 (sub 0) OBJ File: ''
# www.blender.org
mtllib sponge.mtl
o Cube.025
v 0.477835 -0.475072 -0.473937
v 0.477835 -0.475072 0.490703
v -0.486806 -0.475072 0.490703
v -0.486806 -0.475072 -0.473937
v 0.477835 0.489569 -0.473937
v -0.486806 0.489569 -0.473937
v -0.486806 0.489569 0.490703
v 0.477835 0.489569 0.490704
vt 0.666667 0.333333
vt 0.666667 0.000000
vt 1.000000 0.000000
vt 1.000000 0.333333
vt 1.004961 -0.006865
vt 1.004961 1.003853
vt -0.003954 1.003853
vt -0.003954 -0.006864
vt -0.004019 -0.011374
vt 1.012317 -0.004596
vt 1.005804 1.011007
vt -0.010533 1.004230
vt -0.010959 -0.002397
vt 1.000444 -0.008813
vt 1.007185 1.001988
vt -0.004217 1.008404
vt -0.012664 -0.000816
vt 1.002664 -0.005247
vt 1.007175 1.006078
vt -0.008152 1.010510
vt -0.002745 -0.009165
vt 1.010840 -0.003223
vt 1.004571 1.000398
vt -0.009014 0.994457
vn 0.0000 -1.0000 0.0000
vn 0.0000 1.0000 0.0000
vn 1.0000 0.0000 0.0000
vn -0.0000 -0.0000 1.0000
vn -1.0000 -0.0000 0.0000
vn 0.0000 0.0000 -1.0000
usemtl Material.025
s 1
f 1/1/1 2/2/1 3/3/1 4/4/1
usemtl Material_wood_box.jpg.017
f 5/5/2 6/6/2 7/7/2 8/8/2
f 1/9/3 5/10/3 8/11/3 2/12/3
f 2/13/4 8/14/4 7/15/4 3/16/4
f 3/17/5 7/18/5 6/19/5 4/20/5
f 5/21/6 1/22/6 4/23/6 6/24/6
