# Blender v2.79 (sub 0) OBJ File: ''
# www.blender.org
mtllib companion_cube.mtl
o Cube.027
v 1.016040 -0.495711 -0.982032
v 1.016040 -0.495711 1.017968
v -0.983960 -0.495711 1.017968
v -0.983960 -0.495711 -0.982032
v 1.016040 1.504289 -0.982031
v -0.983960 1.504289 -0.982032
v -0.983961 1.504289 1.017968
v 1.016039 1.504289 1.017969
vt 0.666667 0.333333
vt 0.666667 0.000000
vt 1.000000 0.000000
vt 1.000000 0.333333
vt 0.392199 0.299093
vt 0.392199 0.513107
vt 0.228032 0.513107
vt 0.228032 0.299093
vt 0.230296 0.301232
vt 0.391747 0.302640
vt 0.390712 0.513613
vt 0.229262 0.512205
vt 0.229915 0.298685
vt 0.390067 0.297296
vt 0.391134 0.516118
vt 0.230983 0.517507
vt 0.233064 0.517347
vt 0.391168 0.516417
vt 0.391871 0.728700
vt 0.233767 0.729630
vt 0.390160 0.297311
vt 0.229898 0.296053
vt 0.230890 0.083561
vt 0.391151 0.084819
vn 0.0000 -1.0000 -0.0000
vn 0.0000 1.0000 0.0000
vn 1.0000 0.0000 0.0000
vn -0.0000 -0.0000 1.0000
vn -1.0000 -0.0000 -0.0000
vn 0.0000 0.0000 -1.0000
usemtl Material.027
s 1
f 1/1/1 2/2/1 3/3/1 4/4/1
usemtl Material_wood_box.jpg.019
f 5/5/2 6/6/2 7/7/2 8/8/2
f 1/9/3 5/10/3 8/11/3 2/12/3
f 2/13/4 8/14/4 7/15/4 3/16/4
f 3/17/5 7/18/5 6/19/5 4/20/5
f 5/21/6 1/22/6 4/23/6 6/24/6
