# Blender v2.79 (sub 0) OBJ File: ''
# www.blender.org
mtllib mario_bonus.mtl
o Cube.028
v 1.016247 -0.495802 -1.007604
v 1.016247 1.504198 -1.007603
v 1.016246 1.504198 0.992397
v 1.016247 -0.495802 0.992396
v -0.983753 1.504198 -1.007604
v -0.983754 1.504198 0.992396
v -0.983753 -0.495802 0.992396
v -0.983753 -0.495802 -1.007604
vt 0.414725 0.054150
vt 0.414065 0.930735
vt 0.589603 0.933415
vt 0.590263 0.056830
vt 0.587100 0.056812
vt 0.587100 0.934078
vt 0.415519 0.934078
vt 0.415519 0.056812
vt 0.587877 0.058634
vt 0.586364 0.933666
vt 0.411514 0.925244
vt 0.413028 0.050212
vt 0.588009 0.061506
vt 0.587186 0.949969
vt 0.412619 0.945838
vt 0.413442 0.057371
vt 0.413294 0.942778
vt 0.412815 0.060198
vt 0.586681 0.057624
vt 0.587159 0.940202
vt 0.000000 0.666667
vt 0.333333 0.666667
vt 0.333333 1.000000
vt 0.000000 1.000000
vn 1.0000 0.0000 0.0000
vn 0.0000 1.0000 0.0000
vn -0.0000 -0.0000 1.0000
vn -1.0000 -0.0000 -0.0000
vn 0.0000 0.0000 -1.0000
vn 0.0000 -1.0000 -0.0000
usemtl Material.028
s 1
f 1/1/1 2/2/1 3/3/1 4/4/1
usemtl Material.001_Mario.png
f 2/5/2 5/6/2 6/7/2 3/8/2
f 4/9/3 3/10/3 6/11/3 7/12/3
f 7/13/4 6/14/4 5/15/4 8/16/4
f 2/17/5 1/18/5 8/19/5 5/20/5
usemtl Material_Black.jpg.007
f 1/21/6 4/22/6 7/23/6 8/24/6
